<svg version="1.1" viewBox="0.0 0.0 600.0 371.0" fill="none" stroke="none" stroke-linecap="square" stroke-miterlimit="10" width="600" height="371" xmlns:xlink="http://www.w3.org/1999/xlink" xmlns="http://www.w3.org/2000/svg"><path fill="#434343" d="M0 0L600.0 0L600.0 371.0L0 371.0L0 0Z" fill-rule="nonzero"/><path stroke="#ffffff" stroke-width="1.0" stroke-linecap="butt" d="M80.5 332.5L581.5 332.5" fill-rule="nonzero"/><path stroke="#767676" stroke-width="1.0" stroke-linecap="butt" d="M80.5 242.5L581.5 242.5" fill-rule="nonzero"/><path stroke="#767676" stroke-width="1.0" stroke-linecap="butt" d="M80.5 152.5L581.5 152.5" fill-rule="nonzero"/><path stroke="#767676" stroke-width="1.0" stroke-linecap="butt" d="M80.5 61.5L581.5 61.5" fill-rule="nonzero"/><clipPath id="id_0"><path d="M80.55 61.916668L581.45 61.916668L581.45 332.45L80.55 332.45L80.55 61.916668Z" clip-rule="nonzero"/></clipPath><path stroke="#b4a7d6" stroke-width="2.0" stroke-linecap="butt" clip-path="url(#id_0)" d="M294.0 332.0L155.0 332.0L155.0 315.0C155.0 313.89542 155.89543 313.0 157.0 313.0L292.0 313.0C293.10458 313.0 294.0 313.89542 294.0 315.0Z" fill-rule="nonzero"/><path fill="#b4a7d6" clip-path="url(#id_0)" d="M294.0 332.0L155.0 332.0L155.0 315.0C155.0 313.89542 155.89543 313.0 157.0 313.0L292.0 313.0C293.10458 313.0 294.0 313.89542 294.0 315.0Z" fill-rule="nonzero"/><path stroke="#000000" stroke-width="2.0" stroke-linecap="butt" stroke-opacity="0.0" clip-path="url(#id_0)" d="M508.0 332.0L369.0 332.0L369.0 75.0C369.0 73.89543 369.89542 73.0 371.0 73.0L506.0 73.0C507.10458 73.0 508.0 73.89543 508.0 75.0Z" fill-rule="nonzero"/><path fill="#b4a7d6" clip-path="url(#id_0)" d="M508.0 332.0L369.0 332.0L369.0 75.0C369.0 73.89543 369.89542 73.0 371.0 73.0L506.0 73.0C507.10458 73.0 508.0 73.89543 508.0 75.0Z" fill-rule="nonzero"/><path stroke="#b4a7d6" stroke-width="3.0" stroke-linejoin="round" stroke-linecap="round" d="M210.78125 324.34555L211.96875 324.34555L211.96875 325.22055L210.78125 325.22055L210.78125 327.20493L209.70312 327.20493L209.70312 325.22055L205.8125 325.22055L205.8125 324.57993L209.625 318.67368L210.78125 318.67368L210.78125 324.34555ZM207.04688 324.34555L209.70312 324.34555L209.70312 320.15805L209.5625 320.39243L207.04688 324.34555ZM214.78125 322.40805L215.59375 322.40805Q216.375 322.39243 216.8125 322.0018Q217.25 321.61118 217.25 320.9393Q217.25 319.4393 215.75 319.4393Q215.04688 319.4393 214.625 319.84555Q214.21875 320.2518 214.21875 320.90805L213.125 320.90805Q213.125 319.89243 213.85938 319.22055Q214.60938 318.54868 215.75 318.54868Q216.95312 318.54868 217.64062 319.1893Q218.32812 319.82993 218.32812 320.97055Q218.32812 321.53305 217.96875 322.04868Q217.60938 322.5643 216.98438 322.82993Q217.6875 323.04868 218.0625 323.5643Q218.45312 324.07993 218.45312 324.82993Q218.45312 325.97055 217.70312 326.65805Q216.95312 327.32993 215.75 327.32993Q214.5625 327.32993 213.79688 326.67368Q213.04688 326.01743 213.04688 324.95493L214.14062 324.95493Q214.14062 325.6268 214.57812 326.03305Q215.01562 326.4393 215.76562 326.4393Q216.54688 326.4393 216.95312 326.03305Q217.375 325.61118 217.375 324.84555Q217.375 324.11118 216.92188 323.72055Q216.46875 323.3143 215.59375 323.29868L214.78125 323.29868L214.78125 322.40805ZM225.79688 327.20493L220.20312 327.20493L220.20312 326.42368L223.15625 323.14243Q223.8125 322.39243 224.0625 321.9393Q224.3125 321.47055 224.3125 320.97055Q224.3125 320.29868 223.90625 319.8768Q223.51562 319.4393 222.82812 319.4393Q222.03125 319.4393 221.57812 319.90805Q221.125 320.36118 221.125 321.1893L220.04688 321.1893Q220.04688 320.0018 220.79688 319.28305Q221.5625 318.54868 222.82812 318.54868Q224.03125 318.54868 224.71875 319.17368Q225.40625 319.79868 225.40625 320.84555Q225.40625 322.09555 223.79688 323.84555L221.51562 326.3143L225.79688 326.3143L225.79688 327.20493ZM231.34375 320.86118L231.375 321.65805Q232.10938 320.7518 233.28125 320.7518Q235.29688 320.7518 235.3125 323.01743L235.3125 327.20493L234.21875 327.20493L234.21875 323.0018Q234.21875 322.32993 233.90625 322.0018Q233.60938 321.67368 232.95312 321.67368Q232.42188 321.67368 232.01562 321.95493Q231.625 322.23618 231.40625 322.6893L231.40625 327.20493L230.32812 327.20493L230.32812 320.86118L231.34375 320.86118ZM241.01562 325.51743Q241.01562 325.07993 240.67188 324.84555Q240.34375 324.59555 239.51562 324.42368Q238.70312 324.2518 238.21875 324.0018Q237.73438 323.7518 237.5 323.42368Q237.28125 323.07993 237.28125 322.61118Q237.28125 321.82993 237.9375 321.29868Q238.59375 320.7518 239.625 320.7518Q240.70312 320.7518 241.35938 321.3143Q242.03125 321.86118 242.03125 322.72055L240.95312 322.72055Q240.95312 322.28305 240.5625 321.97055Q240.1875 321.64243 239.625 321.64243Q239.03125 321.64243 238.6875 321.90805Q238.35938 322.15805 238.35938 322.5643Q238.35938 322.95493 238.67188 323.15805Q238.98438 323.36118 239.79688 323.54868Q240.60938 323.72055 241.10938 323.97055Q241.60938 324.22055 241.84375 324.57993Q242.09375 324.9393 242.09375 325.4393Q242.09375 326.29868 241.40625 326.8143Q240.73438 327.32993 239.65625 327.32993Q238.89062 327.32993 238.29688 327.0643Q237.71875 326.78305 237.39062 326.29868Q237.0625 325.8143 237.0625 325.2518L238.14062 325.2518Q238.17188 325.79868 238.57812 326.1268Q238.98438 326.4393 239.65625 326.4393Q240.26562 326.4393 240.64062 326.1893Q241.01562 325.9393 241.01562 325.51743Z" fill-rule="nonzero"/><path fill="#434343" d="M210.78125 324.34555L211.96875 324.34555L211.96875 325.22055L210.78125 325.22055L210.78125 327.20493L209.70312 327.20493L209.70312 325.22055L205.8125 325.22055L205.8125 324.57993L209.625 318.67368L210.78125 318.67368L210.78125 324.34555ZM207.04688 324.34555L209.70312 324.34555L209.70312 320.15805L209.5625 320.39243L207.04688 324.34555ZM214.78125 322.40805L215.59375 322.40805Q216.375 322.39243 216.8125 322.0018Q217.25 321.61118 217.25 320.9393Q217.25 319.4393 215.75 319.4393Q215.04688 319.4393 214.625 319.84555Q214.21875 320.2518 214.21875 320.90805L213.125 320.90805Q213.125 319.89243 213.85938 319.22055Q214.60938 318.54868 215.75 318.54868Q216.95312 318.54868 217.64062 319.1893Q218.32812 319.82993 218.32812 320.97055Q218.32812 321.53305 217.96875 322.04868Q217.60938 322.5643 216.98438 322.82993Q217.6875 323.04868 218.0625 323.5643Q218.45312 324.07993 218.45312 324.82993Q218.45312 325.97055 217.70312 326.65805Q216.95312 327.32993 215.75 327.32993Q214.5625 327.32993 213.79688 326.67368Q213.04688 326.01743 213.04688 324.95493L214.14062 324.95493Q214.14062 325.6268 214.57812 326.03305Q215.01562 326.4393 215.76562 326.4393Q216.54688 326.4393 216.95312 326.03305Q217.375 325.61118 217.375 324.84555Q217.375 324.11118 216.92188 323.72055Q216.46875 323.3143 215.59375 323.29868L214.78125 323.29868L214.78125 322.40805ZM225.79688 327.20493L220.20312 327.20493L220.20312 326.42368L223.15625 323.14243Q223.8125 322.39243 224.0625 321.9393Q224.3125 321.47055 224.3125 320.97055Q224.3125 320.29868 223.90625 319.8768Q223.51562 319.4393 222.82812 319.4393Q222.03125 319.4393 221.57812 319.90805Q221.125 320.36118 221.125 321.1893L220.04688 321.1893Q220.04688 320.0018 220.79688 319.28305Q221.5625 318.54868 222.82812 318.54868Q224.03125 318.54868 224.71875 319.17368Q225.40625 319.79868 225.40625 320.84555Q225.40625 322.09555 223.79688 323.84555L221.51562 326.3143L225.79688 326.3143L225.79688 327.20493ZM231.34375 320.86118L231.375 321.65805Q232.10938 320.7518 233.28125 320.7518Q235.29688 320.7518 235.3125 323.01743L235.3125 327.20493L234.21875 327.20493L234.21875 323.0018Q234.21875 322.32993 233.90625 322.0018Q233.60938 321.67368 232.95312 321.67368Q232.42188 321.67368 232.01562 321.95493Q231.625 322.23618 231.40625 322.6893L231.40625 327.20493L230.32812 327.20493L230.32812 320.86118L231.34375 320.86118ZM241.01562 325.51743Q241.01562 325.07993 240.67188 324.84555Q240.34375 324.59555 239.51562 324.42368Q238.70312 324.2518 238.21875 324.0018Q237.73438 323.7518 237.5 323.42368Q237.28125 323.07993 237.28125 322.61118Q237.28125 321.82993 237.9375 321.29868Q238.59375 320.7518 239.625 320.7518Q240.70312 320.7518 241.35938 321.3143Q242.03125 321.86118 242.03125 322.72055L240.95312 322.72055Q240.95312 322.28305 240.5625 321.97055Q240.1875 321.64243 239.625 321.64243Q239.03125 321.64243 238.6875 321.90805Q238.35938 322.15805 238.35938 322.5643Q238.35938 322.95493 238.67188 323.15805Q238.98438 323.36118 239.79688 323.54868Q240.60938 323.72055 241.10938 323.97055Q241.60938 324.22055 241.84375 324.57993Q242.09375 324.9393 242.09375 325.4393Q242.09375 326.29868 241.40625 326.8143Q240.73438 327.32993 239.65625 327.32993Q238.89062 327.32993 238.29688 327.0643Q237.71875 326.78305 237.39062 326.29868Q237.0625 325.8143 237.0625 325.2518L238.14062 325.2518Q238.17188 325.79868 238.57812 326.1268Q238.98438 326.4393 239.65625 326.4393Q240.26562 326.4393 240.64062 326.1893Q241.01562 325.9393 241.01562 325.51743Z" fill-rule="nonzero"/><path stroke="#b4a7d6" stroke-width="3.0" stroke-linejoin="round" stroke-linecap="round" d="M419.20312 202.93674L419.64062 198.68674L424.01562 198.68674L424.01562 199.68674L420.5625 199.68674L420.29688 202.01486Q420.9375 201.63986 421.73438 201.63986Q422.89062 201.63986 423.57812 202.42111Q424.26562 203.18674 424.26562 204.49924Q424.26562 205.81174 423.54688 206.57736Q422.84375 207.34299 421.5625 207.34299Q420.4375 207.34299 419.71875 206.71799Q419.0 206.07736 418.90625 204.96799L419.92188 204.96799Q420.03125 205.70236 420.45312 206.07736Q420.875 206.45236 421.5625 206.45236Q422.3125 206.45236 422.75 205.93674Q423.1875 205.42111 423.1875 204.51486Q423.1875 203.65549 422.71875 203.13986Q422.25 202.62424 421.46875 202.62424Q420.76562 202.62424 420.35938 202.92111L420.07812 203.15549L419.20312 202.93674ZM425.84375 206.65549Q425.84375 206.37424 426.0 206.18674Q426.17188 205.99924 426.5 205.99924Q426.84375 205.99924 427.01562 206.18674Q427.1875 206.37424 427.1875 206.65549Q427.1875 206.92111 427.01562 207.10861Q426.84375 207.28049 426.5 207.28049Q426.17188 207.28049 426.0 207.10861Q425.84375 206.92111 425.84375 206.65549ZM434.21875 199.29611L430.6875 207.21799L429.54688 207.21799L433.0625 199.57736L428.45312 199.57736L428.45312 198.68674L434.21875 198.68674L434.21875 199.29611ZM436.20312 202.93674L436.64062 198.68674L441.01562 198.68674L441.01562 199.68674L437.5625 199.68674L437.29688 202.01486Q437.9375 201.63986 438.73438 201.63986Q439.89062 201.63986 440.57812 202.42111Q441.26562 203.18674 441.26562 204.49924Q441.26562 205.81174 440.54688 206.57736Q439.84375 207.34299 438.5625 207.34299Q437.4375 207.34299 436.71875 206.71799Q436.0 206.07736 435.90625 204.96799L436.92188 204.96799Q437.03125 205.70236 437.45312 206.07736Q437.875 206.45236 438.5625 206.45236Q439.3125 206.45236 439.75 205.93674Q440.1875 205.42111 440.1875 204.51486Q440.1875 203.65549 439.71875 203.13986Q439.25 202.62424 438.46875 202.62424Q437.76562 202.62424 437.35938 202.92111L437.07812 203.15549L436.20312 202.93674ZM446.98438 200.87424L446.98438 204.59299Q447.0 205.54611 447.29688 205.99924Q447.59375 206.45236 448.28125 206.45236Q449.4375 206.45236 449.8125 205.56174L449.8125 200.87424L450.89062 200.87424L450.89062 207.21799L449.92188 207.21799L449.85938 206.54611Q449.3125 207.34299 448.32812 207.34299Q447.46875 207.34299 446.98438 206.90549L446.98438 209.65549L445.90625 209.65549L445.90625 200.87424L446.98438 200.87424ZM456.51562 205.53049Q456.51562 205.09299 456.17188 204.85861Q455.84375 204.60861 455.01562 204.43674Q454.20312 204.26486 453.71875 204.01486Q453.23438 203.76486 453.0 203.43674Q452.78125 203.09299 452.78125 202.62424Q452.78125 201.84299 453.4375 201.31174Q454.09375 200.76486 455.125 200.76486Q456.20312 200.76486 456.85938 201.32736Q457.53125 201.87424 457.53125 202.73361L456.45312 202.73361Q456.45312 202.29611 456.0625 201.98361Q455.6875 201.65549 455.125 201.65549Q454.53125 201.65549 454.1875 201.92111Q453.85938 202.17111 453.85938 202.57736Q453.85938 202.96799 454.17188 203.17111Q454.48438 203.37424 455.29688 203.56174Q456.10938 203.73361 456.60938 203.98361Q457.10938 204.23361 457.34375 204.59299Q457.59375 204.95236 457.59375 205.45236Q457.59375 206.31174 456.90625 206.82736Q456.23438 207.34299 455.15625 207.34299Q454.39062 207.34299 453.79688 207.07736Q453.21875 206.79611 452.89062 206.31174Q452.5625 205.82736 452.5625 205.26486L453.64062 205.26486Q453.67188 205.81174 454.07812 206.13986Q454.48438 206.45236 455.15625 206.45236Q455.76562 206.45236 456.14062 206.20236Q456.51562 205.95236 456.51562 205.53049Z" fill-rule="nonzero"/><path fill="#434343" d="M419.20312 202.93674L419.64062 198.68674L424.01562 198.68674L424.01562 199.68674L420.5625 199.68674L420.29688 202.01486Q420.9375 201.63986 421.73438 201.63986Q422.89062 201.63986 423.57812 202.42111Q424.26562 203.18674 424.26562 204.49924Q424.26562 205.81174 423.54688 206.57736Q422.84375 207.34299 421.5625 207.34299Q420.4375 207.34299 419.71875 206.71799Q419.0 206.07736 418.90625 204.96799L419.92188 204.96799Q420.03125 205.70236 420.45312 206.07736Q420.875 206.45236 421.5625 206.45236Q422.3125 206.45236 422.75 205.93674Q423.1875 205.42111 423.1875 204.51486Q423.1875 203.65549 422.71875 203.13986Q422.25 202.62424 421.46875 202.62424Q420.76562 202.62424 420.35938 202.92111L420.07812 203.15549L419.20312 202.93674ZM425.84375 206.65549Q425.84375 206.37424 426.0 206.18674Q426.17188 205.99924 426.5 205.99924Q426.84375 205.99924 427.01562 206.18674Q427.1875 206.37424 427.1875 206.65549Q427.1875 206.92111 427.01562 207.10861Q426.84375 207.28049 426.5 207.28049Q426.17188 207.28049 426.0 207.10861Q425.84375 206.92111 425.84375 206.65549ZM434.21875 199.29611L430.6875 207.21799L429.54688 207.21799L433.0625 199.57736L428.45312 199.57736L428.45312 198.68674L434.21875 198.68674L434.21875 199.29611ZM436.20312 202.93674L436.64062 198.68674L441.01562 198.68674L441.01562 199.68674L437.5625 199.68674L437.29688 202.01486Q437.9375 201.63986 438.73438 201.63986Q439.89062 201.63986 440.57812 202.42111Q441.26562 203.18674 441.26562 204.49924Q441.26562 205.81174 440.54688 206.57736Q439.84375 207.34299 438.5625 207.34299Q437.4375 207.34299 436.71875 206.71799Q436.0 206.07736 435.90625 204.96799L436.92188 204.96799Q437.03125 205.70236 437.45312 206.07736Q437.875 206.45236 438.5625 206.45236Q439.3125 206.45236 439.75 205.93674Q440.1875 205.42111 440.1875 204.51486Q440.1875 203.65549 439.71875 203.13986Q439.25 202.62424 438.46875 202.62424Q437.76562 202.62424 437.35938 202.92111L437.07812 203.15549L436.20312 202.93674ZM446.98438 200.87424L446.98438 204.59299Q447.0 205.54611 447.29688 205.99924Q447.59375 206.45236 448.28125 206.45236Q449.4375 206.45236 449.8125 205.56174L449.8125 200.87424L450.89062 200.87424L450.89062 207.21799L449.92188 207.21799L449.85938 206.54611Q449.3125 207.34299 448.32812 207.34299Q447.46875 207.34299 446.98438 206.90549L446.98438 209.65549L445.90625 209.65549L445.90625 200.87424L446.98438 200.87424ZM456.51562 205.53049Q456.51562 205.09299 456.17188 204.85861Q455.84375 204.60861 455.01562 204.43674Q454.20312 204.26486 453.71875 204.01486Q453.23438 203.76486 453.0 203.43674Q452.78125 203.09299 452.78125 202.62424Q452.78125 201.84299 453.4375 201.31174Q454.09375 200.76486 455.125 200.76486Q456.20312 200.76486 456.85938 201.32736Q457.53125 201.87424 457.53125 202.73361L456.45312 202.73361Q456.45312 202.29611 456.0625 201.98361Q455.6875 201.65549 455.125 201.65549Q454.53125 201.65549 454.1875 201.92111Q453.85938 202.17111 453.85938 202.57736Q453.85938 202.96799 454.17188 203.17111Q454.48438 203.37424 455.29688 203.56174Q456.10938 203.73361 456.60938 203.98361Q457.10938 204.23361 457.34375 204.59299Q457.59375 204.95236 457.59375 205.45236Q457.59375 206.31174 456.90625 206.82736Q456.23438 207.34299 455.15625 207.34299Q454.39062 207.34299 453.79688 207.07736Q453.21875 206.79611 452.89062 206.31174Q452.5625 205.82736 452.5625 205.26486L453.64062 205.26486Q453.67188 205.81174 454.07812 206.13986Q454.48438 206.45236 455.15625 206.45236Q455.76562 206.45236 456.14062 206.20236Q456.51562 205.95236 456.51562 205.53049Z" fill-rule="nonzero"/><path fill="#efefef" d="M29.550013 227.07396L21.971888 227.07396L21.971888 229.90208L20.956263 229.90208L20.956263 223.08958L21.971888 223.08958L21.971888 225.93333L29.550013 225.93333L29.550013 227.07396ZM22.175013 222.38646L20.956263 222.38646L20.956263 221.32396L22.175013 221.32396L22.175013 222.38646ZM29.550013 222.38646L23.331263 222.38646L23.331263 221.32396L29.550013 221.32396L29.550013 222.38646ZM29.550013 219.38646L23.331263 219.38646L23.331263 218.44896L24.206263 218.44896Q23.737513 218.15208 23.471888 217.66771Q23.190638 217.18333 23.190638 216.55833Q23.190638 215.87083 23.471888 215.43333Q23.753138 214.98021 24.268763 214.80833Q23.190638 214.05833 23.190638 212.88646Q23.190638 211.94896 23.706263 211.46458Q24.206263 210.96458 25.284388 210.96458L29.550013 210.96458L29.550013 212.01146L25.628138 212.01146Q25.003138 212.01146 24.721888 212.12083Q24.440638 212.21458 24.268763 212.48021Q24.096888 212.74583 24.096888 213.12083Q24.096888 213.77708 24.534388 214.21458Q24.971888 214.63646 25.940638 214.63646L29.550013 214.63646L29.550013 215.69896L25.503138 215.69896Q24.800013 215.69896 24.456263 215.96458Q24.096888 216.21458 24.096888 216.79271Q24.096888 217.24583 24.331263 217.62083Q24.565638 217.99583 25.018763 218.16771Q25.471888 218.33958 26.315638 218.33958L29.550013 218.33958L29.550013 219.38646ZM27.550013 204.13646L27.675013 203.04271Q28.628138 203.29271 29.159388 203.99583Q29.690638 204.69896 29.690638 205.77708Q29.690638 207.13646 28.846888 207.94896Q28.003138 208.74583 26.487513 208.74583Q24.925013 208.74583 24.065638 207.93333Q23.190638 207.12083 23.190638 205.83958Q23.190638 204.58958 24.034388 203.80833Q24.878138 203.01146 26.425013 203.01146Q26.518763 203.01146 26.706263 203.01146L26.706263 207.65208Q27.737513 207.58958 28.284388 207.07396Q28.815638 206.55833 28.815638 205.77708Q28.815638 205.19896 28.518763 204.79271Q28.206263 204.37083 27.550013 204.13646ZM25.846888 207.58958L25.846888 204.12083Q25.050013 204.18333 24.659388 204.51146Q24.050013 205.02708 24.050013 205.82396Q24.050013 206.55833 24.534388 207.05833Q25.018763 207.54271 25.846888 207.58958ZM32.08126 196.37083Q30.971888 197.24583 29.503138 197.85521Q28.018763 198.44896 26.440638 198.44896Q25.050013 198.44896 23.768763 198.01146Q22.284388 197.48021 20.815638 196.37083L20.815638 195.62083Q22.034388 196.32396 22.550013 196.55833Q23.362513 196.91771 24.237513 197.12083Q25.331263 197.37083 26.440638 197.37083Q29.268763 197.37083 32.08126 195.62083L32.08126 196.37083ZM29.550013 194.38646L23.331263 194.38646L23.331263 193.44896L24.206263 193.44896Q23.190638 192.76146 23.190638 191.46458Q23.190638 190.90208 23.393763 190.43333Q23.596888 189.94896 23.925013 189.71458Q24.253138 189.48021 24.690638 189.38646Q24.987513 189.33958 25.721888 189.33958L29.550013 189.33958L29.550013 190.38646L25.768763 190.38646Q25.112513 190.38646 24.800013 190.51146Q24.487513 190.63646 24.300013 190.94896Q24.096888 191.26146 24.096888 191.68333Q24.096888 192.35521 24.534388 192.85521Q24.956263 193.33958 26.143763 193.33958L29.550013 193.33958L29.550013 194.38646ZM27.690638 187.80833L27.534388 186.77708Q28.159388 186.68333 28.487513 186.29271Q28.815638 185.88646 28.815638 185.15208Q28.815638 184.43333 28.534388 184.08958Q28.237513 183.73021 27.831263 183.73021Q27.471888 183.73021 27.268763 184.04271Q27.128138 184.26146 26.909388 185.12083Q26.612513 186.27708 26.409388 186.73021Q26.190638 187.16771 25.815638 187.40208Q25.440638 187.63646 24.971888 187.63646Q24.565638 187.63646 24.206263 187.44896Q23.846888 187.26146 23.612513 186.93333Q23.440638 186.68333 23.315638 186.26146Q23.190638 185.83958 23.190638 185.33958Q23.190638 184.62083 23.409388 184.07396Q23.612513 183.51146 23.971888 183.24583Q24.331263 182.98021 24.925013 182.88646L25.065638 183.91771Q24.596888 183.98021 24.331263 184.32396Q24.050013 184.65208 24.050013 185.27708Q24.050013 185.99583 24.300013 186.30833Q24.534388 186.62083 24.862513 186.62083Q25.065638 186.62083 25.221888 186.49583Q25.393763 186.35521 25.503138 186.08958Q25.565638 185.93333 25.768763 185.15208Q26.081263 184.02708 26.268763 183.58958Q26.456263 183.15208 26.815638 182.90208Q27.175013 182.65208 27.721888 182.65208Q28.253138 182.65208 28.721888 182.96458Q29.175013 183.26146 29.440638 183.83958Q29.690638 184.41771 29.690638 185.15208Q29.690638 186.37083 29.190638 187.01146Q28.675013 187.63646 27.690638 187.80833ZM32.08126 179.69896L32.08126 180.44896Q29.268763 178.69896 26.440638 178.69896Q25.346888 178.69896 24.253138 178.94896Q23.378138 179.15208 22.565638 179.51146Q22.050013 179.74583 20.815638 180.44896L20.815638 179.69896Q22.284388 178.60521 23.768763 178.07396Q25.050013 177.62083 26.440638 177.62083Q28.018763 177.62083 29.503138 178.23021Q30.971888 178.83958 32.08126 179.69896Z" fill-rule="nonzero"/><path fill="#efefef" d="M51.05 332.21564Q51.05 330.6844 51.3625 329.7625Q51.675 328.825 52.284374 328.325Q52.909374 327.825 53.846874 327.825Q54.534374 327.825 55.05 328.10626Q55.58125 328.3875 55.925 328.91876Q56.26875 329.4344 56.45625 330.1844Q56.64375 330.9344 56.64375 332.21564Q56.64375 333.73126 56.33125 334.65314Q56.034374 335.575 55.409374 336.09064Q54.8 336.59064 53.846874 336.59064Q52.6125 336.59064 51.89375 335.7Q51.05 334.6375 51.05 332.21564ZM52.128124 332.21564Q52.128124 334.325 52.628124 335.02814Q53.128124 335.73126 53.846874 335.73126Q54.58125 335.73126 55.065624 335.02814Q55.565624 334.325 55.565624 332.21564Q55.565624 330.09064 55.065624 329.40314Q54.58125 328.7 53.83125 328.7Q53.1125 328.7 52.675 329.3094Q52.128124 330.09064 52.128124 332.21564ZM66.51875 330.23126L66.51875 336.45L65.56563 336.45L65.56563 335.71564Q65.26875 336.1844 64.97188 336.35626Q64.56563 336.59064 64.01875 336.59064Q63.534374 336.59064 63.159374 336.40314Q62.878124 336.2625 62.534374 335.825L62.534374 338.84064L61.4875 338.84064L61.4875 330.23126L62.534374 330.23126L62.534374 332.85626Q62.534374 334.29376 62.675 334.73126Q62.83125 335.15314 63.175 335.40314Q63.51875 335.6375 63.971874 335.6375Q64.44063 335.6375 64.8 335.3875Q65.175 335.1219 65.31563 334.71564Q65.47188 334.3094 65.47188 332.8875L65.47188 330.23126L66.51875 330.23126ZM67.925 334.59064L68.95625 334.4344Q69.05 335.0594 69.44063 335.3875Q69.84688 335.71564 70.58125 335.71564Q71.3 335.71564 71.64375 335.4344Q72.00313 335.1375 72.00313 334.73126Q72.00313 334.3719 71.69063 334.16876Q71.47188 334.02814 70.6125 333.8094Q69.45625 333.5125 69.00313 333.3094Q68.56563 333.09064 68.33125 332.71564Q68.09688 332.34064 68.09688 331.8719Q68.09688 331.46564 68.28438 331.10626Q68.47188 330.7469 68.8 330.5125Q69.05 330.34064 69.47188 330.21564Q69.89375 330.09064 70.39375 330.09064Q71.1125 330.09064 71.65938 330.3094Q72.22188 330.5125 72.4875 330.8719Q72.75313 331.23126 72.84688 331.825L71.81563 331.96564Q71.75313 331.4969 71.40938 331.23126Q71.08125 330.95 70.45625 330.95Q69.7375 330.95 69.425 331.2Q69.1125 331.4344 69.1125 331.7625Q69.1125 331.96564 69.2375 332.1219Q69.37813 332.29376 69.64375 332.40314Q69.8 332.46564 70.58125 332.66876Q71.70625 332.98126 72.14375 333.16876Q72.58125 333.35626 72.83125 333.71564Q73.08125 334.075 73.08125 334.6219Q73.08125 335.15314 72.76875 335.6219Q72.47188 336.075 71.89375 336.34064Q71.31563 336.59064 70.58125 336.59064Q69.3625 336.59064 68.72188 336.09064Q68.09688 335.575 67.925 334.59064Z" fill-rule="nonzero"/><path fill="#efefef" d="M56.596874 245.25659L56.596874 246.27222L50.909374 246.27222Q50.909374 245.89722 51.034374 245.53784Q51.253124 244.95972 51.721874 244.39722Q52.20625 243.83472 53.1125 243.10034Q54.51875 241.94409 55.003124 241.27222Q55.503124 240.60034 55.503124 240.00659Q55.503124 239.38159 55.05 238.95972Q54.596874 238.52222 53.878124 238.52222Q53.1125 238.52222 52.659374 238.97534Q52.20625 239.42847 52.190624 240.24097L51.1125 240.13159Q51.221874 238.91284 51.940624 238.28784Q52.675 237.64722 53.909374 237.64722Q55.14375 237.64722 55.8625 238.33472Q56.58125 239.02222 56.58125 240.03784Q56.58125 240.55347 56.3625 241.05347Q56.159374 241.53784 55.659374 242.10034Q55.175 242.64722 54.05 243.60034Q53.096874 244.39722 52.815624 244.69409Q52.55 244.97534 52.378124 245.25659L56.596874 245.25659ZM66.51875 240.05347L66.51875 246.27222L65.56563 246.27222L65.56563 245.53784Q65.26875 246.00659 64.97188 246.17847Q64.56563 246.41284 64.01875 246.41284Q63.534374 246.41284 63.159374 246.22534Q62.878124 246.08472 62.534374 245.64722L62.534374 248.66284L61.4875 248.66284L61.4875 240.05347L62.534374 240.05347L62.534374 242.67847Q62.534374 244.11597 62.675 244.55347Q62.83125 244.97534 63.175 245.22534Q63.51875 245.45972 63.971874 245.45972Q64.44063 245.45972 64.8 245.20972Q65.175 244.94409 65.31563 244.53784Q65.47188 244.13159 65.47188 242.70972L65.47188 240.05347L66.51875 240.05347ZM67.925 244.41284L68.95625 244.25659Q69.05 244.88159 69.44063 245.20972Q69.84688 245.53784 70.58125 245.53784Q71.3 245.53784 71.64375 245.25659Q72.00313 244.95972 72.00313 244.55347Q72.00313 244.19409 71.69063 243.99097Q71.47188 243.85034 70.6125 243.63159Q69.45625 243.33472 69.00313 243.13159Q68.56563 242.91284 68.33125 242.53784Q68.09688 242.16284 68.09688 241.69409Q68.09688 241.28784 68.28438 240.92847Q68.47188 240.56909 68.8 240.33472Q69.05 240.16284 69.47188 240.03784Q69.89375 239.91284 70.39375 239.91284Q71.1125 239.91284 71.65938 240.13159Q72.22188 240.33472 72.4875 240.69409Q72.75313 241.05347 72.84688 241.64722L71.81563 241.78784Q71.75313 241.31909 71.40938 241.05347Q71.08125 240.77222 70.45625 240.77222Q69.7375 240.77222 69.425 241.02222Q69.1125 241.25659 69.1125 241.58472Q69.1125 241.78784 69.2375 241.94409Q69.37813 242.11597 69.64375 242.22534Q69.8 242.28784 70.58125 242.49097Q71.70625 242.80347 72.14375 242.99097Q72.58125 243.17847 72.83125 243.53784Q73.08125 243.89722 73.08125 244.44409Q73.08125 244.97534 72.76875 245.44409Q72.47188 245.89722 71.89375 246.16284Q71.31563 246.41284 70.58125 246.41284Q69.3625 246.41284 68.72188 245.91284Q68.09688 245.39722 67.925 244.41284Z" fill-rule="nonzero"/><path fill="#efefef" d="M54.425 156.09445L54.425 154.03195L50.70625 154.03195L50.70625 153.0632L54.628124 147.5007L55.4875 147.5007L55.4875 153.0632L56.64375 153.0632L56.64375 154.03195L55.4875 154.03195L55.4875 156.09445L54.425 156.09445ZM54.425 153.0632L54.425 149.20383L51.7375 153.0632L54.425 153.0632ZM66.51875 149.8757L66.51875 156.09445L65.56563 156.09445L65.56563 155.36008Q65.26875 155.82883 64.97188 156.0007Q64.56563 156.23508 64.01875 156.23508Q63.534374 156.23508 63.159374 156.04758Q62.878124 155.90695 62.534374 155.46945L62.534374 158.48508L61.4875 158.48508L61.4875 149.8757L62.534374 149.8757L62.534374 152.5007Q62.534374 153.9382 62.675 154.3757Q62.83125 154.79758 63.175 155.04758Q63.51875 155.28195 63.971874 155.28195Q64.44063 155.28195 64.8 155.03195Q65.175 154.76633 65.31563 154.36008Q65.47188 153.95383 65.47188 152.53195L65.47188 149.8757L66.51875 149.8757ZM67.925 154.23508L68.95625 154.07883Q69.05 154.70383 69.44063 155.03195Q69.84688 155.36008 70.58125 155.36008Q71.3 155.36008 71.64375 155.07883Q72.00313 154.78195 72.00313 154.3757Q72.00313 154.01633 71.69063 153.8132Q71.47188 153.67258 70.6125 153.45383Q69.45625 153.15695 69.00313 152.95383Q68.56563 152.73508 68.33125 152.36008Q68.09688 151.98508 68.09688 151.51633Q68.09688 151.11008 68.28438 150.7507Q68.47188 150.39133 68.8 150.15695Q69.05 149.98508 69.47188 149.86008Q69.89375 149.73508 70.39375 149.73508Q71.1125 149.73508 71.65938 149.95383Q72.22188 150.15695 72.4875 150.51633Q72.75313 150.8757 72.84688 151.46945L71.81563 151.61008Q71.75313 151.14133 71.40938 150.8757Q71.08125 150.59445 70.45625 150.59445Q69.7375 150.59445 69.425 150.84445Q69.1125 151.07883 69.1125 151.40695Q69.1125 151.61008 69.2375 151.76633Q69.37813 151.9382 69.64375 152.04758Q69.8 152.11008 70.58125 152.3132Q71.70625 152.6257 72.14375 152.8132Q72.58125 153.0007 72.83125 153.36008Q73.08125 153.71945 73.08125 154.26633Q73.08125 154.79758 72.76875 155.26633Q72.47188 155.71945 71.89375 155.98508Q71.31563 156.23508 70.58125 156.23508Q69.3625 156.23508 68.72188 155.73508Q68.09688 155.21945 67.925 154.23508Z" fill-rule="nonzero"/><path fill="#efefef" d="M56.51875 59.43229L55.471874 59.510414Q55.33125 58.885414 55.08125 58.604164Q54.64375 58.15104 54.01875 58.15104Q53.51875 58.15104 53.128124 58.43229Q52.64375 58.80729 52.346874 59.510414Q52.065624 60.197914 52.05 61.479164Q52.425 60.90104 52.971874 60.61979Q53.534374 60.33854 54.14375 60.33854Q55.190624 60.33854 55.925 61.11979Q56.675 61.90104 56.675 63.11979Q56.675 63.93229 56.315624 64.635414Q55.971874 65.322914 55.3625 65.697914Q54.753124 66.05729 53.9875 66.05729Q52.659374 66.05729 51.83125 65.08854Q51.003124 64.11979 51.003124 61.90104Q51.003124 59.40104 51.925 58.27604Q52.721874 57.291664 54.08125 57.291664Q55.096874 57.291664 55.7375 57.86979Q56.39375 58.43229 56.51875 59.43229ZM52.221874 63.135414Q52.221874 63.68229 52.440624 64.18229Q52.675 64.666664 53.08125 64.93229Q53.503124 65.197914 53.971874 65.197914Q54.628124 65.197914 55.1125 64.666664Q55.596874 64.11979 55.596874 63.197914Q55.596874 62.30729 55.1125 61.791664Q54.64375 61.27604 53.925 61.27604Q53.20625 61.27604 52.70625 61.791664Q52.221874 62.30729 52.221874 63.135414ZM66.51875 59.697914L66.51875 65.916664L65.56563 65.916664L65.56563 65.18229Q65.26875 65.65104 64.97188 65.822914Q64.56563 66.05729 64.01875 66.05729Q63.534374 66.05729 63.159374 65.86979Q62.878124 65.729164 62.534374 65.291664L62.534374 68.30729L61.4875 68.30729L61.4875 59.697914L62.534374 59.697914L62.534374 62.322914Q62.534374 63.760414 62.675 64.197914Q62.83125 64.61979 63.175 64.86979Q63.51875 65.104164 63.971874 65.104164Q64.44063 65.104164 64.8 64.854164Q65.175 64.58854 65.31563 64.18229Q65.47188 63.77604 65.47188 62.354164L65.47188 59.697914L66.51875 59.697914ZM67.925 64.05729L68.95625 63.90104Q69.05 64.52604 69.44063 64.854164Q69.84688 65.18229 70.58125 65.18229Q71.3 65.18229 71.64375 64.90104Q72.00313 64.604164 72.00313 64.197914Q72.00313 63.83854 71.69063 63.635414Q71.47188 63.49479 70.6125 63.27604Q69.45625 62.979164 69.00313 62.77604Q68.56563 62.55729 68.33125 62.18229Q68.09688 61.80729 68.09688 61.33854Q68.09688 60.93229 68.28438 60.572914Q68.47188 60.21354 68.8 59.979164Q69.05 59.80729 69.47188 59.68229Q69.89375 59.55729 70.39375 59.55729Q71.1125 59.55729 71.65938 59.77604Q72.22188 59.979164 72.4875 60.33854Q72.75313 60.697914 72.84688 61.291664L71.81563 61.43229Q71.75313 60.96354 71.40938 60.697914Q71.08125 60.416664 70.45625 60.416664Q69.7375 60.416664 69.425 60.666664Q69.1125 60.90104 69.1125 61.229164Q69.1125 61.43229 69.2375 61.58854Q69.37813 61.760414 69.64375 61.86979Q69.8 61.93229 70.58125 62.135414Q71.70625 62.447914 72.14375 62.635414Q72.58125 62.822914 72.83125 63.18229Q73.08125 63.541664 73.08125 64.08854Q73.08125 64.61979 72.76875 65.08854Q72.47188 65.541664 71.89375 65.80729Q71.31563 66.05729 70.58125 66.05729Q69.3625 66.05729 68.72188 65.55729Q68.09688 65.041664 67.925 64.05729Z" fill-rule="nonzero"/><path fill="#efefef" d="M178.30054 349.45L178.30054 340.85626L179.44116 340.85626L179.44116 345.1219L183.70679 340.85626L185.25366 340.85626L181.64429 344.34064L185.40991 349.45L183.90991 349.45L180.84741 345.10626L179.44116 346.46564L179.44116 349.45L178.30054 349.45ZM190.28491 348.6844Q189.69116 349.1844 189.14429 349.3875Q188.61304 349.59064 187.98804 349.59064Q186.95679 349.59064 186.40991 349.09064Q185.86304 348.59064 185.86304 347.8094Q185.86304 347.35626 186.06616 346.98126Q186.26929 346.59064 186.61304 346.3719Q186.95679 346.1375 187.37866 346.02814Q187.67554 345.9344 188.31616 345.85626Q189.58179 345.71564 190.19116 345.4969Q190.19116 345.27814 190.19116 345.23126Q190.19116 344.575 189.89429 344.3094Q189.48804 343.96564 188.69116 343.96564Q187.95679 343.96564 187.59741 344.23126Q187.23804 344.48126 187.06616 345.1375L186.03491 344.9969Q186.17554 344.34064 186.50366 343.9344Q186.83179 343.52814 187.44116 343.3094Q188.05054 343.09064 188.84741 343.09064Q189.64429 343.09064 190.14429 343.27814Q190.64429 343.46564 190.87866 343.7469Q191.11304 344.02814 191.20679 344.46564Q191.25366 344.73126 191.25366 345.4344L191.25366 346.84064Q191.25366 348.3094 191.31616 348.7Q191.39429 349.09064 191.59741 349.45L190.48804 349.45Q190.33179 349.1219 190.28491 348.6844ZM190.19116 346.325Q189.61304 346.5594 188.47241 346.73126Q187.81616 346.825 187.55054 346.95Q187.28491 347.0594 187.12866 347.27814Q186.98804 347.4969 186.98804 347.77814Q186.98804 348.2 187.30054 348.48126Q187.62866 348.7625 188.23804 348.7625Q188.84741 348.7625 189.31616 348.4969Q189.80054 348.23126 190.01929 347.7625Q190.19116 347.40314 190.19116 346.71564L190.19116 346.325ZM193.22241 349.45L193.22241 343.23126L194.15991 343.23126L194.15991 344.10626Q194.45679 343.6375 194.94116 343.3719Q195.42554 343.09064 196.05054 343.09064Q196.73804 343.09064 197.17554 343.3719Q197.62866 343.65314 197.80054 344.16876Q198.55054 343.09064 199.72241 343.09064Q200.65991 343.09064 201.14429 343.60626Q201.64429 344.10626 201.64429 345.1844L201.64429 349.45L200.59741 349.45L200.59741 345.52814Q200.59741 344.90314 200.48804 344.6219Q200.39429 344.34064 200.12866 344.16876Q199.86304 343.9969 199.48804 343.9969Q198.83179 343.9969 198.39429 344.4344Q197.97241 344.8719 197.97241 345.84064L197.97241 349.45L196.90991 349.45L196.90991 345.40314Q196.90991 344.7 196.64429 344.35626Q196.39429 343.9969 195.81616 343.9969Q195.36304 343.9969 194.98804 344.23126Q194.61304 344.46564 194.44116 344.91876Q194.26929 345.3719 194.26929 346.21564L194.26929 349.45L193.22241 349.45ZM208.47241 347.45L209.56616 347.575Q209.31616 348.52814 208.61304 349.0594Q207.90991 349.59064 206.83179 349.59064Q205.47241 349.59064 204.65991 348.7469Q203.86304 347.90314 203.86304 346.3875Q203.86304 344.825 204.67554 343.96564Q205.48804 343.09064 206.76929 343.09064Q208.01929 343.09064 208.80054 343.9344Q209.59741 344.77814 209.59741 346.325Q209.59741 346.41876 209.59741 346.60626L204.95679 346.60626Q205.01929 347.6375 205.53491 348.1844Q206.05054 348.71564 206.83179 348.71564Q207.40991 348.71564 207.81616 348.41876Q208.23804 348.10626 208.47241 347.45ZM205.01929 345.7469L208.48804 345.7469Q208.42554 344.95 208.09741 344.5594Q207.58179 343.95 206.78491 343.95Q206.05054 343.95 205.55054 344.4344Q205.06616 344.91876 205.01929 345.7469ZM210.83179 346.34064Q210.83179 344.60626 211.78491 343.77814Q212.58179 343.09064 213.73804 343.09064Q215.01929 343.09064 215.83179 343.9344Q216.65991 344.7625 216.65991 346.2469Q216.65991 347.45 216.30054 348.1375Q215.94116 348.825 215.23804 349.21564Q214.55054 349.59064 213.73804 349.59064Q212.44116 349.59064 211.62866 348.7625Q210.83179 347.91876 210.83179 346.34064ZM211.90991 346.34064Q211.90991 347.52814 212.42554 348.1219Q212.95679 348.71564 213.73804 348.71564Q214.53491 348.71564 215.05054 348.1219Q215.56616 347.52814 215.56616 346.3094Q215.56616 345.15314 215.03491 344.5594Q214.51929 343.96564 213.73804 343.96564Q212.95679 343.96564 212.42554 344.5594Q211.90991 345.1375 211.90991 346.34064ZM221.31616 349.45L221.31616 340.85626L223.03491 340.85626L225.06616 346.9344Q225.34741 347.79376 225.47241 348.21564Q225.61304 347.7469 225.92554 346.84064L227.98804 340.85626L229.51929 340.85626L229.51929 349.45L228.42554 349.45L228.42554 342.2625L225.92554 349.45L224.89429 349.45L222.40991 342.1375L222.40991 349.45L221.31616 349.45ZM234.47241 347.45L235.56616 347.575Q235.31616 348.52814 234.61304 349.0594Q233.90991 349.59064 232.83179 349.59064Q231.47241 349.59064 230.65991 348.7469Q229.86304 347.90314 229.86304 346.3875Q229.86304 344.825 230.67554 343.96564Q231.48804 343.09064 232.76929 343.09064Q234.01929 343.09064 234.80054 343.9344Q235.59741 344.77814 235.59741 346.325Q235.59741 346.41876 235.59741 346.60626L230.95679 346.60626Q231.01929 347.6375 231.53491 348.1844Q232.05054 348.71564 232.83179 348.71564Q233.40991 348.71564 233.81616 348.41876Q234.23804 348.10626 234.47241 347.45ZM231.01929 345.7469L234.48804 345.7469Q234.42554 344.95 234.09741 344.5594Q233.58179 343.95 232.78491 343.95Q232.05054 343.95 231.55054 344.4344Q231.06616 344.91876 231.01929 345.7469ZM236.80054 347.59064L237.83179 347.4344Q237.92554 348.0594 238.31616 348.3875Q238.72241 348.71564 239.45679 348.71564Q240.17554 348.71564 240.51929 348.4344Q240.87866 348.1375 240.87866 347.73126Q240.87866 347.3719 240.56616 347.16876Q240.34741 347.02814 239.48804 346.8094Q238.33179 346.5125 237.87866 346.3094Q237.44116 346.09064 237.20679 345.71564Q236.97241 345.34064 236.97241 344.8719Q236.97241 344.46564 237.15991 344.10626Q237.34741 343.7469 237.67554 343.5125Q237.92554 343.34064 238.34741 343.21564Q238.76929 343.09064 239.26929 343.09064Q239.98804 343.09064 240.53491 343.3094Q241.09741 343.5125 241.36304 343.8719Q241.62866 344.23126 241.72241 344.825L240.69116 344.96564Q240.62866 344.4969 240.28491 344.23126Q239.95679 343.95 239.33179 343.95Q238.61304 343.95 238.30054 344.2Q237.98804 344.4344 237.98804 344.7625Q237.98804 344.96564 238.11304 345.1219Q238.25366 345.29376 238.51929 345.40314Q238.67554 345.46564 239.45679 345.66876Q240.58179 345.98126 241.01929 346.16876Q241.45679 346.35626 241.70679 346.71564Q241.95679 347.075 241.95679 347.6219Q241.95679 348.15314 241.64429 348.6219Q241.34741 349.075 240.76929 349.34064Q240.19116 349.59064 239.45679 349.59064Q238.23804 349.59064 237.59741 349.09064Q236.97241 348.575 236.80054 347.59064ZM243.80054 347.59064L244.83179 347.4344Q244.92554 348.0594 245.31616 348.3875Q245.72241 348.71564 246.45679 348.71564Q247.17554 348.71564 247.51929 348.4344Q247.87866 348.1375 247.87866 347.73126Q247.87866 347.3719 247.56616 347.16876Q247.34741 347.02814 246.48804 346.8094Q245.33179 346.5125 244.87866 346.3094Q244.44116 346.09064 244.20679 345.71564Q243.97241 345.34064 243.97241 344.8719Q243.97241 344.46564 244.15991 344.10626Q244.34741 343.7469 244.67554 343.5125Q244.92554 343.34064 245.34741 343.21564Q245.76929 343.09064 246.26929 343.09064Q246.98804 343.09064 247.53491 343.3094Q248.09741 343.5125 248.36304 343.8719Q248.62866 344.23126 248.72241 344.825L247.69116 344.96564Q247.62866 344.4969 247.28491 344.23126Q246.95679 343.95 246.33179 343.95Q245.61304 343.95 245.30054 344.2Q244.98804 344.4344 244.98804 344.7625Q244.98804 344.96564 245.11304 345.1219Q245.25366 345.29376 245.51929 345.40314Q245.67554 345.46564 246.45679 345.66876Q247.58179 345.98126 248.01929 346.16876Q248.45679 346.35626 248.70679 346.71564Q248.95679 347.075 248.95679 347.6219Q248.95679 348.15314 248.64429 348.6219Q248.34741 349.075 247.76929 349.34064Q247.19116 349.59064 246.45679 349.59064Q245.23804 349.59064 244.59741 349.09064Q243.97241 348.575 243.80054 347.59064ZM255.28491 348.6844Q254.69116 349.1844 254.14429 349.3875Q253.61304 349.59064 252.98804 349.59064Q251.95679 349.59064 251.40991 349.09064Q250.86304 348.59064 250.86304 347.8094Q250.86304 347.35626 251.06616 346.98126Q251.26929 346.59064 251.61304 346.3719Q251.95679 346.1375 252.37866 346.02814Q252.67554 345.9344 253.31616 345.85626Q254.58179 345.71564 255.19116 345.4969Q255.19116 345.27814 255.19116 345.23126Q255.19116 344.575 254.89429 344.3094Q254.48804 343.96564 253.69116 343.96564Q252.95679 343.96564 252.59741 344.23126Q252.23804 344.48126 252.06616 345.1375L251.03491 344.9969Q251.17554 344.34064 251.50366 343.9344Q251.83179 343.52814 252.44116 343.3094Q253.05054 343.09064 253.84741 343.09064Q254.64429 343.09064 255.14429 343.27814Q255.64429 343.46564 255.87866 343.7469Q256.11304 344.02814 256.2068 344.46564Q256.25366 344.73126 256.25366 345.4344L256.25366 346.84064Q256.25366 348.3094 256.31616 348.7Q256.3943 349.09064 256.5974 349.45L255.48804 349.45Q255.33179 349.1219 255.28491 348.6844ZM255.19116 346.325Q254.61304 346.5594 253.47241 346.73126Q252.81616 346.825 252.55054 346.95Q252.28491 347.0594 252.12866 347.27814Q251.98804 347.4969 251.98804 347.77814Q251.98804 348.2 252.30054 348.48126Q252.62866 348.7625 253.23804 348.7625Q253.84741 348.7625 254.31616 348.4969Q254.80054 348.23126 255.01929 347.7625Q255.19116 347.40314 255.19116 346.71564L255.19116 346.325ZM258.0193 349.96564L259.05054 350.1219Q259.11304 350.59064 259.4099 350.8094Q259.80054 351.10626 260.4724 351.10626Q261.2068 351.10626 261.5974 350.8094Q262.00366 350.5125 262.1443 349.9969Q262.23804 349.66876 262.2224 348.6375Q261.5349 349.45 260.50366 349.45Q259.2224 349.45 258.5193 348.52814Q257.81616 347.59064 257.81616 346.3094Q257.81616 345.41876 258.12866 344.66876Q258.4568 343.90314 259.06616 343.4969Q259.67554 343.09064 260.50366 343.09064Q261.61304 343.09064 262.3318 343.98126L262.3318 343.23126L263.30054 343.23126L263.30054 348.60626Q263.30054 350.0594 263.00366 350.66876Q262.7068 351.27814 262.06616 351.6219Q261.42554 351.98126 260.48804 351.98126Q259.37866 351.98126 258.69116 351.48126Q258.00366 350.98126 258.0193 349.96564ZM258.8943 346.23126Q258.8943 347.45 259.37866 348.0125Q259.86304 348.575 260.5974 348.575Q261.3318 348.575 261.81616 348.0125Q262.31616 347.45 262.31616 346.2625Q262.31616 345.1219 261.80054 344.54376Q261.30054 343.96564 260.5818 343.96564Q259.87866 343.96564 259.37866 344.54376Q258.8943 345.10626 258.8943 346.23126ZM269.4724 347.45L270.56616 347.575Q270.31616 348.52814 269.61304 349.0594Q268.9099 349.59064 267.8318 349.59064Q266.4724 349.59064 265.6599 348.7469Q264.86304 347.90314 264.86304 346.3875Q264.86304 344.825 265.67554 343.96564Q266.48804 343.09064 267.7693 343.09064Q269.0193 343.09064 269.80054 343.9344Q270.5974 344.77814 270.5974 346.325Q270.5974 346.41876 270.5974 346.60626L265.9568 346.60626Q266.0193 347.6375 266.5349 348.1844Q267.05054 348.71564 267.8318 348.71564Q268.4099 348.71564 268.81616 348.41876Q269.23804 348.10626 269.4724 347.45ZM266.0193 345.7469L269.48804 345.7469Q269.42554 344.95 269.0974 344.5594Q268.5818 343.95 267.7849 343.95Q267.05054 343.95 266.55054 344.4344Q266.06616 344.91876 266.0193 345.7469Z" fill-rule="nonzero"/><path fill="#efefef" d="M398.55884 349.45L401.8557 340.85626L403.07446 340.85626L406.5901 349.45L405.30884 349.45L404.2932 346.84064L400.7151 346.84064L399.76196 349.45L398.55884 349.45ZM401.0432 345.91876L403.94946 345.91876L403.05884 343.54376Q402.63696 342.46564 402.44946 341.7625Q402.2776 342.59064 401.9807 343.40314L401.0432 345.91876ZM410.43384 347.16876L411.4651 347.3094Q411.2932 348.3719 410.5901 348.98126Q409.88696 349.59064 408.87134 349.59064Q407.5901 349.59064 406.80884 348.7625Q406.0432 347.91876 406.0432 346.35626Q406.0432 345.35626 406.37134 344.60626Q406.7151 343.84064 407.38696 343.46564Q408.07446 343.09064 408.88696 343.09064Q409.88696 343.09064 410.5276 343.60626Q411.18384 344.10626 411.37134 345.0594L410.3401 345.21564Q410.19946 344.59064 409.82446 344.27814Q409.44946 343.95 408.9182 343.95Q408.12134 343.95 407.62134 344.52814Q407.12134 345.09064 407.12134 346.325Q407.12134 347.59064 407.6057 348.15314Q408.0901 348.71564 408.8557 348.71564Q409.4807 348.71564 409.88696 348.34064Q410.30884 347.96564 410.43384 347.16876ZM414.6682 348.5125L414.82446 349.4344Q414.37134 349.52814 414.0276 349.52814Q413.44946 349.52814 413.13696 349.35626Q412.82446 349.16876 412.68384 348.8719Q412.55884 348.575 412.55884 347.6219L412.55884 344.04376L411.7932 344.04376L411.7932 343.23126L412.55884 343.23126L412.55884 341.6844L413.6057 341.0594L413.6057 343.23126L414.6682 343.23126L414.6682 344.04376L413.6057 344.04376L413.6057 347.6844Q413.6057 348.1375 413.6526 348.2625Q413.7151 348.3875 413.8401 348.46564Q413.9651 348.54376 414.19946 348.54376Q414.38696 348.54376 414.6682 348.5125ZM415.37134 342.075L415.37134 340.85626L416.43384 340.85626L416.43384 342.075L415.37134 342.075ZM415.37134 349.45L415.37134 343.23126L416.43384 343.23126L416.43384 349.45L415.37134 349.45ZM417.6682 349.45L419.93384 346.21564L417.8401 343.23126L419.1526 343.23126L420.1057 344.6844Q420.37134 345.10626 420.5432 345.3875Q420.7932 344.9969 421.01196 344.7L422.05884 343.23126L423.32446 343.23126L421.1682 346.15314L423.4807 349.45L422.19946 349.45L420.9182 347.5125L420.57446 346.9969L418.93384 349.45L417.6682 349.45ZM426.4651 349.45L426.4651 340.85626L428.18384 340.85626L430.2151 346.9344Q430.49634 347.79376 430.62134 348.21564Q430.76196 347.7469 431.07446 346.84064L433.13696 340.85626L434.6682 340.85626L434.6682 349.45L433.57446 349.45L433.57446 342.2625L431.07446 349.45L430.0432 349.45L427.55884 342.1375L427.55884 349.45L426.4651 349.45ZM439.62134 347.45L440.7151 347.575Q440.4651 348.52814 439.76196 349.0594Q439.05884 349.59064 437.9807 349.59064Q436.62134 349.59064 435.80884 348.7469Q435.01196 347.90314 435.01196 346.3875Q435.01196 344.825 435.82446 343.96564Q436.63696 343.09064 437.9182 343.09064Q439.1682 343.09064 439.94946 343.9344Q440.74634 344.77814 440.74634 346.325Q440.74634 346.41876 440.74634 346.60626L436.1057 346.60626Q436.1682 347.6375 436.68384 348.1844Q437.19946 348.71564 437.9807 348.71564Q438.55884 348.71564 438.9651 348.41876Q439.38696 348.10626 439.62134 347.45ZM436.1682 345.7469L439.63696 345.7469Q439.57446 344.95 439.24634 344.5594Q438.7307 343.95 437.93384 343.95Q437.19946 343.95 436.69946 344.4344Q436.2151 344.91876 436.1682 345.7469ZM441.94946 347.59064L442.9807 347.4344Q443.07446 348.0594 443.4651 348.3875Q443.87134 348.71564 444.6057 348.71564Q445.32446 348.71564 445.6682 348.4344Q446.0276 348.1375 446.0276 347.73126Q446.0276 347.3719 445.7151 347.16876Q445.49634 347.02814 444.63696 346.8094Q443.4807 346.5125 443.0276 346.3094Q442.5901 346.09064 442.3557 345.71564Q442.12134 345.34064 442.12134 344.8719Q442.12134 344.46564 442.30884 344.10626Q442.49634 343.7469 442.82446 343.5125Q443.07446 343.34064 443.49634 343.21564Q443.9182 343.09064 444.4182 343.09064Q445.13696 343.09064 445.68384 343.3094Q446.24634 343.5125 446.51196 343.8719Q446.7776 344.23126 446.87134 344.825L445.8401 344.96564Q445.7776 344.4969 445.43384 344.23126Q445.1057 343.95 444.4807 343.95Q443.76196 343.95 443.44946 344.2Q443.13696 344.4344 443.13696 344.7625Q443.13696 344.96564 443.26196 345.1219Q443.4026 345.29376 443.6682 345.40314Q443.82446 345.46564 444.6057 345.66876Q445.7307 345.98126 446.1682 346.16876Q446.6057 346.35626 446.8557 346.71564Q447.1057 347.075 447.1057 347.6219Q447.1057 348.15314 446.7932 348.6219Q446.49634 349.075 445.9182 349.34064Q445.3401 349.59064 444.6057 349.59064Q443.38696 349.59064 442.74634 349.09064Q442.12134 348.575 441.94946 347.59064ZM448.94946 347.59064L449.9807 347.4344Q450.07446 348.0594 450.4651 348.3875Q450.87134 348.71564 451.6057 348.71564Q452.32446 348.71564 452.6682 348.4344Q453.0276 348.1375 453.0276 347.73126Q453.0276 347.3719 452.7151 347.16876Q452.49634 347.02814 451.63696 346.8094Q450.4807 346.5125 450.0276 346.3094Q449.5901 346.09064 449.3557 345.71564Q449.12134 345.34064 449.12134 344.8719Q449.12134 344.46564 449.30884 344.10626Q449.49634 343.7469 449.82446 343.5125Q450.07446 343.34064 450.49634 343.21564Q450.9182 343.09064 451.4182 343.09064Q452.13696 343.09064 452.68384 343.3094Q453.24634 343.5125 453.51196 343.8719Q453.7776 344.23126 453.87134 344.825L452.8401 344.96564Q452.7776 344.4969 452.43384 344.23126Q452.1057 343.95 451.4807 343.95Q450.76196 343.95 450.44946 344.2Q450.13696 344.4344 450.13696 344.7625Q450.13696 344.96564 450.26196 345.1219Q450.4026 345.29376 450.6682 345.40314Q450.82446 345.46564 451.6057 345.66876Q452.7307 345.98126 453.1682 346.16876Q453.6057 346.35626 453.8557 346.71564Q454.1057 347.075 454.1057 347.6219Q454.1057 348.15314 453.7932 348.6219Q453.49634 349.075 452.9182 349.34064Q452.3401 349.59064 451.6057 349.59064Q450.38696 349.59064 449.74634 349.09064Q449.12134 348.575 448.94946 347.59064ZM460.43384 348.6844Q459.8401 349.1844 459.2932 349.3875Q458.76196 349.59064 458.13696 349.59064Q457.1057 349.59064 456.55884 349.09064Q456.01196 348.59064 456.01196 347.8094Q456.01196 347.35626 456.2151 346.98126Q456.4182 346.59064 456.76196 346.3719Q457.1057 346.1375 457.5276 346.02814Q457.82446 345.9344 458.4651 345.85626Q459.7307 345.71564 460.3401 345.4969Q460.3401 345.27814 460.3401 345.23126Q460.3401 344.575 460.0432 344.3094Q459.63696 343.96564 458.8401 343.96564Q458.1057 343.96564 457.74634 344.23126Q457.38696 344.48126 457.2151 345.1375L456.18384 344.9969Q456.32446 344.34064 456.6526 343.9344Q456.9807 343.52814 457.5901 343.3094Q458.19946 343.09064 458.99634 343.09064Q459.7932 343.09064 460.2932 343.27814Q460.7932 343.46564 461.0276 343.7469Q461.26196 344.02814 461.3557 344.46564Q461.4026 344.73126 461.4026 345.4344L461.4026 346.84064Q461.4026 348.3094 461.4651 348.7Q461.5432 349.09064 461.74634 349.45L460.63696 349.45Q460.4807 349.1219 460.43384 348.6844ZM460.3401 346.325Q459.76196 346.5594 458.62134 346.73126Q457.9651 346.825 457.69946 346.95Q457.43384 347.0594 457.2776 347.27814Q457.13696 347.4969 457.13696 347.77814Q457.13696 348.2 457.44946 348.48126Q457.7776 348.7625 458.38696 348.7625Q458.99634 348.7625 459.4651 348.4969Q459.94946 348.23126 460.1682 347.7625Q460.3401 347.40314 460.3401 346.71564L460.3401 346.325ZM463.1682 349.96564L464.19946 350.1219Q464.26196 350.59064 464.55884 350.8094Q464.94946 351.10626 465.62134 351.10626Q466.3557 351.10626 466.74634 350.8094Q467.1526 350.5125 467.2932 349.9969Q467.38696 349.66876 467.37134 348.6375Q466.68384 349.45 465.6526 349.45Q464.37134 349.45 463.6682 348.52814Q462.9651 347.59064 462.9651 346.3094Q462.9651 345.41876 463.2776 344.66876Q463.6057 343.90314 464.2151 343.4969Q464.82446 343.09064 465.6526 343.09064Q466.76196 343.09064 467.4807 343.98126L467.4807 343.23126L468.44946 343.23126L468.44946 348.60626Q468.44946 350.0594 468.1526 350.66876Q467.8557 351.27814 467.2151 351.6219Q466.57446 351.98126 465.63696 351.98126Q464.5276 351.98126 463.8401 351.48126Q463.1526 350.98126 463.1682 349.96564ZM464.0432 346.23126Q464.0432 347.45 464.5276 348.0125Q465.01196 348.575 465.74634 348.575Q466.4807 348.575 466.9651 348.0125Q467.4651 347.45 467.4651 346.2625Q467.4651 345.1219 466.94946 344.54376Q466.44946 343.96564 465.7307 343.96564Q465.0276 343.96564 464.5276 344.54376Q464.0432 345.10626 464.0432 346.23126ZM474.62134 347.45L475.7151 347.575Q475.4651 348.52814 474.76196 349.0594Q474.05884 349.59064 472.9807 349.59064Q471.62134 349.59064 470.80884 348.7469Q470.01196 347.90314 470.01196 346.3875Q470.01196 344.825 470.82446 343.96564Q471.63696 343.09064 472.9182 343.09064Q474.1682 343.09064 474.94946 343.9344Q475.74634 344.77814 475.74634 346.325Q475.74634 346.41876 475.74634 346.60626L471.1057 346.60626Q471.1682 347.6375 471.68384 348.1844Q472.19946 348.71564 472.9807 348.71564Q473.55884 348.71564 473.9651 348.41876Q474.38696 348.10626 474.62134 347.45ZM471.1682 345.7469L474.63696 345.7469Q474.57446 344.95 474.24634 344.5594Q473.7307 343.95 472.93384 343.95Q472.19946 343.95 471.69946 344.4344Q471.2151 344.91876 471.1682 345.7469Z" fill-rule="nonzero"/><path fill="#ffffff" d="M19.26875 32.89375L22.08125 32.6125Q22.346874 34.034374 23.1125 34.70625Q23.89375 35.3625 25.20625 35.3625Q26.6125 35.3625 27.315624 34.76875Q28.01875 34.175 28.01875 33.39375Q28.01875 32.878124 27.721874 32.534374Q27.425 32.175 26.690624 31.909374Q26.175 31.721874 24.378124 31.284374Q22.05 30.70625 21.1125 29.8625Q19.784374 28.675 19.784374 26.9875Q19.784374 25.89375 20.409374 24.940624Q21.034374 23.9875 22.190624 23.4875Q23.3625 22.9875 25.01875 22.9875Q27.70625 22.9875 29.065624 24.175Q30.440624 25.346874 30.503124 27.33125L27.6125 27.45625Q27.425 26.346874 26.815624 25.8625Q26.20625 25.378124 24.9875 25.378124Q23.721874 25.378124 23.01875 25.89375Q22.55 26.2375 22.55 26.784374Q22.55 27.3 22.9875 27.659374Q23.534374 28.1125 25.64375 28.6125Q27.753124 29.1125 28.753124 29.64375Q29.76875 30.175 30.33125 31.096874Q30.909374 32.01875 30.909374 33.378124Q30.909374 34.6125 30.221874 35.690624Q29.55 36.753124 28.3 37.284374Q27.05 37.8 25.175 37.8Q22.471874 37.8 21.003124 36.55Q19.55 35.3 19.26875 32.89375ZM38.9875 34.253124L41.721874 34.70625Q41.20625 36.20625 40.065624 37.003124Q38.925 37.784374 37.221874 37.784374Q34.503124 37.784374 33.20625 36.01875Q32.190624 34.596874 32.190624 32.440624Q32.190624 29.8625 33.534374 28.409374Q34.878124 26.940624 36.940624 26.940624Q39.253124 26.940624 40.58125 28.471874Q41.925 30.003124 41.878124 33.159374L35.003124 33.159374Q35.034374 34.378124 35.659374 35.065624Q36.3 35.7375 37.2375 35.7375Q37.89375 35.7375 38.33125 35.39375Q38.76875 35.034374 38.9875 34.253124ZM39.14375 31.471874Q39.1125 30.284374 38.51875 29.675Q37.940624 29.05 37.1125 29.05Q36.20625 29.05 35.628124 29.690624Q35.034374 30.346874 35.05 31.471874L39.14375 31.471874ZM53.425 37.55L50.675 37.55L50.675 32.253124Q50.675 30.58125 50.503124 30.096874Q50.33125 29.596874 49.925 29.33125Q49.534374 29.05 48.971874 29.05Q48.26875 29.05 47.690624 29.440624Q47.128124 29.83125 46.909374 30.471874Q46.70625 31.1125 46.70625 32.846874L46.70625 37.55L43.971874 37.55L43.971874 27.175L46.51875 27.175L46.51875 28.70625Q47.878124 26.940624 49.940624 26.940624Q50.846874 26.940624 51.596874 27.26875Q52.346874 27.596874 52.721874 28.1125Q53.1125 28.6125 53.26875 29.26875Q53.425 29.909374 53.425 31.096874L53.425 37.55ZM65.50313 37.55L62.95625 37.55L62.95625 36.01875Q62.315624 36.909374 61.440624 37.346874Q60.58125 37.784374 59.70625 37.784374Q57.925 37.784374 56.64375 36.346874Q55.378124 34.909374 55.378124 32.33125Q55.378124 29.690624 56.6125 28.315624Q57.846874 26.940624 59.753124 26.940624Q61.4875 26.940624 62.753124 28.39375L62.753124 23.2375L65.50313 23.2375L65.50313 37.55ZM58.175 32.14375Q58.175 33.8 58.628124 34.534374Q59.3 35.6125 60.4875 35.6125Q61.440624 35.6125 62.096874 34.815624Q62.76875 34.003124 62.76875 32.409374Q62.76875 30.6125 62.1125 29.83125Q61.471874 29.05 60.471874 29.05Q59.4875 29.05 58.83125 29.83125Q58.175 30.596874 58.175 32.14375ZM67.9875 25.76875L67.9875 23.2375L70.7375 23.2375L70.7375 25.76875L67.9875 25.76875ZM67.9875 37.55L67.9875 27.175L70.7375 27.175L70.7375 37.55L67.9875 37.55ZM82.425 37.55L79.675 37.55L79.675 32.253124Q79.675 30.58125 79.50313 30.096874Q79.33125 29.596874 78.925 29.33125Q78.53438 29.05 77.97188 29.05Q77.26875 29.05 76.69063 29.440624Q76.12813 29.83125 75.90938 30.471874Q75.70625 31.1125 75.70625 32.846874L75.70625 37.55L72.97188 37.55L72.97188 27.175L75.51875 27.175L75.51875 28.70625Q76.87813 26.940624 78.94063 26.940624Q79.84688 26.940624 80.59688 27.26875Q81.34688 27.596874 81.72188 28.1125Q82.1125 28.6125 82.26875 29.26875Q82.425 29.909374 82.425 31.096874L82.425 37.55ZM84.7375 38.2375L87.8625 38.6125Q87.94063 39.159374 88.22188 39.3625Q88.6125 39.659374 89.45625 39.659374Q90.53438 39.659374 91.06563 39.33125Q91.425 39.128124 91.6125 38.64375Q91.7375 38.3 91.7375 37.378124L91.7375 35.8625Q90.51875 37.55 88.64375 37.55Q86.55 37.55 85.33125 35.784374Q84.37813 34.378124 84.37813 32.3Q84.37813 29.690624 85.62813 28.315624Q86.87813 26.940624 88.75313 26.940624Q90.675 26.940624 91.925 28.628124L91.925 27.175L94.4875 27.175L94.4875 36.4875Q94.4875 38.315624 94.175 39.221874Q93.87813 40.14375 93.33125 40.659374Q92.78438 41.175 91.8625 41.45625Q90.95625 41.753124 89.56563 41.753124Q86.925 41.753124 85.81563 40.846874Q84.72188 39.95625 84.72188 38.565624Q84.72188 38.425 84.7375 38.2375ZM87.19063 32.14375Q87.19063 33.8 87.81563 34.565624Q88.45625 35.33125 89.39375 35.33125Q90.40938 35.33125 91.09688 34.55Q91.8 33.753124 91.8 32.221874Q91.8 30.6125 91.12813 29.83125Q90.47188 29.05 89.45625 29.05Q88.45625 29.05 87.81563 29.815624Q87.19063 30.58125 87.19063 32.14375ZM105.03438 30.346874L102.55 29.89375Q102.97188 28.39375 103.9875 27.675Q105.01875 26.940624 107.03438 26.940624Q108.87813 26.940624 109.76875 27.378124Q110.675 27.815624 111.03438 28.4875Q111.40938 29.14375 111.40938 30.940624L111.37813 34.14375Q111.37813 35.503124 111.50313 36.159374Q111.64375 36.8 112.00313 37.55L109.28438 37.55Q109.175 37.26875 109.01875 36.7375Q108.95625 36.4875 108.925 36.409374Q108.22188 37.096874 107.40938 37.440624Q106.6125 37.784374 105.70625 37.784374Q104.1125 37.784374 103.19063 36.925Q102.26875 36.05 102.26875 34.721874Q102.26875 33.83125 102.675 33.14375Q103.09688 32.45625 103.84688 32.096874Q104.6125 31.721874 106.05 31.45625Q107.97188 31.096874 108.70625 30.784374L108.70625 30.503124Q108.70625 29.721874 108.31563 29.39375Q107.925 29.05 106.84688 29.05Q106.1125 29.05 105.69063 29.33125Q105.28438 29.6125 105.03438 30.346874ZM108.70625 32.565624Q108.175 32.7375 107.03438 32.9875Q105.89375 33.2375 105.55 33.471874Q105.00313 33.846874 105.00313 34.440624Q105.00313 35.003124 105.425 35.425Q105.8625 35.846874 106.53438 35.846874Q107.26875 35.846874 107.94063 35.3625Q108.44063 34.9875 108.59688 34.45625Q108.70625 34.096874 108.70625 33.1125L108.70625 32.565624ZM119.97188 37.55L119.97188 23.2375L124.3 23.2375L126.89375 33.003124L129.45625 23.2375L133.8 23.2375L133.8 37.55L131.1125 37.55L131.1125 26.284374L128.26875 37.55L125.4875 37.55L122.65938 26.284374L122.65938 37.55L119.97188 37.55ZM142.9875 34.253124L145.72188 34.70625Q145.20625 36.20625 144.06563 37.003124Q142.925 37.784374 141.22188 37.784374Q138.50313 37.784374 137.20625 36.01875Q136.19063 34.596874 136.19063 32.440624Q136.19063 29.8625 137.53438 28.409374Q138.87813 26.940624 140.94063 26.940624Q143.25313 26.940624 144.58125 28.471874Q145.925 30.003124 145.87813 33.159374L139.00313 33.159374Q139.03438 34.378124 139.65938 35.065624Q140.3 35.7375 141.2375 35.7375Q141.89375 35.7375 142.33125 35.39375Q142.76875 35.034374 142.9875 34.253124ZM143.14375 31.471874Q143.1125 30.284374 142.51875 29.675Q141.94063 29.05 141.1125 29.05Q140.20625 29.05 139.62813 29.690624Q139.03438 30.346874 139.05 31.471874L143.14375 31.471874ZM147.01875 34.596874L149.76875 34.175Q149.95625 34.971874 150.4875 35.39375Q151.01875 35.8 151.9875 35.8Q153.05 35.8 153.59688 35.409374Q153.95625 35.14375 153.95625 34.675Q153.95625 34.3625 153.75313 34.159374Q153.55 33.971874 152.84688 33.8Q149.51875 33.065624 148.62813 32.45625Q147.39375 31.628124 147.39375 30.128124Q147.39375 28.784374 148.45625 27.8625Q149.53438 26.940624 151.76875 26.940624Q153.89375 26.940624 154.925 27.64375Q155.97188 28.33125 156.3625 29.690624L153.76875 30.159374Q153.59688 29.565624 153.12813 29.2375Q152.675 28.909374 151.81563 28.909374Q150.7375 28.909374 150.26875 29.221874Q149.95625 29.440624 149.95625 29.76875Q149.95625 30.065624 150.22188 30.26875Q150.59688 30.55 152.78438 31.05Q154.97188 31.55 155.84688 32.26875Q156.70625 33.003124 156.70625 34.3Q156.70625 35.7375 155.51875 36.76875Q154.33125 37.784374 151.9875 37.784374Q149.87813 37.784374 148.62813 36.925Q147.39375 36.065624 147.01875 34.596874ZM158.01875 34.596874L160.76875 34.175Q160.95625 34.971874 161.4875 35.39375Q162.01875 35.8 162.9875 35.8Q164.05 35.8 164.59688 35.409374Q164.95625 35.14375 164.95625 34.675Q164.95625 34.3625 164.75313 34.159374Q164.55 33.971874 163.84688 33.8Q160.51875 33.065624 159.62813 32.45625Q158.39375 31.628124 158.39375 30.128124Q158.39375 28.784374 159.45625 27.8625Q160.53438 26.940624 162.76875 26.940624Q164.89375 26.940624 165.925 27.64375Q166.97188 28.33125 167.3625 29.690624L164.76875 30.159374Q164.59688 29.565624 164.12813 29.2375Q163.675 28.909374 162.81563 28.909374Q161.7375 28.909374 161.26875 29.221874Q160.95625 29.440624 160.95625 29.76875Q160.95625 30.065624 161.22188 30.26875Q161.59688 30.55 163.78438 31.05Q165.97188 31.55 166.84688 32.26875Q167.70625 33.003124 167.70625 34.3Q167.70625 35.7375 166.51875 36.76875Q165.33125 37.784374 162.9875 37.784374Q160.87813 37.784374 159.62813 36.925Q158.39375 36.065624 158.01875 34.596874ZM172.03438 30.346874L169.55 29.89375Q169.97188 28.39375 170.9875 27.675Q172.01875 26.940624 174.03438 26.940624Q175.87813 26.940624 176.76875 27.378124Q177.675 27.815624 178.03438 28.4875Q178.40938 29.14375 178.40938 30.940624L178.37813 34.14375Q178.37813 35.503124 178.50313 36.159374Q178.64375 36.8 179.00313 37.55L176.28438 37.55Q176.175 37.26875 176.01875 36.7375Q175.95625 36.4875 175.925 36.409374Q175.22188 37.096874 174.40938 37.440624Q173.6125 37.784374 172.70625 37.784374Q171.1125 37.784374 170.19063 36.925Q169.26875 36.05 169.26875 34.721874Q169.26875 33.83125 169.675 33.14375Q170.09688 32.45625 170.84688 32.096874Q171.6125 31.721874 173.05 31.45625Q174.97188 31.096874 175.70625 30.784374L175.70625 30.503124Q175.70625 29.721874 175.31563 29.39375Q174.925 29.05 173.84688 29.05Q173.1125 29.05 172.69063 29.33125Q172.28438 29.6125 172.03438 30.346874ZM175.70625 32.565624Q175.175 32.7375 174.03438 32.9875Q172.89375 33.2375 172.55 33.471874Q172.00313 33.846874 172.00313 34.440624Q172.00313 35.003124 172.425 35.425Q172.8625 35.846874 173.53438 35.846874Q174.26875 35.846874 174.94063 35.3625Q175.44063 34.9875 175.59688 34.45625Q175.70625 34.096874 175.70625 33.1125L175.70625 32.565624ZM180.7375 38.2375L183.8625 38.6125Q183.94063 39.159374 184.22188 39.3625Q184.6125 39.659374 185.45625 39.659374Q186.53438 39.659374 187.06563 39.33125Q187.425 39.128124 187.6125 38.64375Q187.7375 38.3 187.7375 37.378124L187.7375 35.8625Q186.51875 37.55 184.64375 37.55Q182.55 37.55 181.33125 35.784374Q180.37813 34.378124 180.37813 32.3Q180.37813 29.690624 181.62813 28.315624Q182.87813 26.940624 184.75313 26.940624Q186.675 26.940624 187.925 28.628124L187.925 27.175L190.4875 27.175L190.4875 36.4875Q190.4875 38.315624 190.175 39.221874Q189.87813 40.14375 189.33125 40.659374Q188.78438 41.175 187.8625 41.45625Q186.95625 41.753124 185.56563 41.753124Q182.925 41.753124 181.81563 40.846874Q180.72188 39.95625 180.72188 38.565624Q180.72188 38.425 180.7375 38.2375ZM183.19063 32.14375Q183.19063 33.8 183.81563 34.565624Q184.45625 35.33125 185.39375 35.33125Q186.40938 35.33125 187.09688 34.55Q187.8 33.753124 187.8 32.221874Q187.8 30.6125 187.12813 29.83125Q186.47188 29.05 185.45625 29.05Q184.45625 29.05 183.81563 29.815624Q183.19063 30.58125 183.19063 32.14375ZM198.9875 34.253124L201.72188 34.70625Q201.20625 36.20625 200.06563 37.003124Q198.925 37.784374 197.22188 37.784374Q194.50313 37.784374 193.20625 36.01875Q192.19063 34.596874 192.19063 32.440624Q192.19063 29.8625 193.53438 28.409374Q194.87813 26.940624 196.94063 26.940624Q199.25313 26.940624 200.58125 28.471874Q201.925 30.003124 201.87813 33.159374L195.00313 33.159374Q195.03438 34.378124 195.65938 35.065624Q196.3 35.7375 197.2375 35.7375Q197.89375 35.7375 198.33125 35.39375Q198.76875 35.034374 198.9875 34.253124ZM199.14375 31.471874Q199.1125 30.284374 198.51875 29.675Q197.94063 29.05 197.1125 29.05Q196.20625 29.05 195.62813 29.690624Q195.03438 30.346874 195.05 31.471874L199.14375 31.471874ZM209.9875 25.76875L209.9875 23.2375L212.7375 23.2375L212.7375 25.76875L209.9875 25.76875ZM209.9875 37.55L209.9875 27.175L212.7375 27.175L212.7375 37.55L209.9875 37.55ZM224.425 37.55L221.675 37.55L221.675 32.253124Q221.675 30.58125 221.50313 30.096874Q221.33125 29.596874 220.925 29.33125Q220.53438 29.05 219.97188 29.05Q219.26875 29.05 218.69063 29.440624Q218.12813 29.83125 217.90938 30.471874Q217.70625 31.1125 217.70625 32.846874L217.70625 37.55L214.97188 37.55L214.97188 27.175L217.51875 27.175L217.51875 28.70625Q218.87813 26.940624 220.94063 26.940624Q221.84688 26.940624 222.59688 27.26875Q223.34688 27.596874 223.72188 28.1125Q224.1125 28.6125 224.26875 29.26875Q224.425 29.909374 224.425 31.096874L224.425 37.55ZM233.05 37.55L233.05 23.2375L235.94063 23.2375L235.94063 29.596874L241.76875 23.2375L245.65938 23.2375L240.26875 28.815624L245.95625 37.55L242.22188 37.55L238.28438 30.83125L235.94063 33.221874L235.94063 37.55L233.05 37.55ZM249.03438 30.346874L246.55 29.89375Q246.97188 28.39375 247.9875 27.675Q249.01875 26.940624 251.03438 26.940624Q252.87813 26.940624 253.76875 27.378124Q254.675 27.815624 255.03438 28.4875Q255.40938 29.14375 255.40938 30.940624L255.37813 34.14375Q255.37813 35.503124 255.50313 36.159374Q255.64375 36.8 256.0031 37.55L253.28438 37.55Q253.175 37.26875 253.01875 36.7375Q252.95625 36.4875 252.925 36.409374Q252.22188 37.096874 251.40938 37.440624Q250.6125 37.784374 249.70625 37.784374Q248.1125 37.784374 247.19063 36.925Q246.26875 36.05 246.26875 34.721874Q246.26875 33.83125 246.675 33.14375Q247.09688 32.45625 247.84688 32.096874Q248.6125 31.721874 250.05 31.45625Q251.97188 31.096874 252.70625 30.784374L252.70625 30.503124Q252.70625 29.721874 252.31563 29.39375Q251.925 29.05 250.84688 29.05Q250.1125 29.05 249.69063 29.33125Q249.28438 29.6125 249.03438 30.346874ZM252.70625 32.565624Q252.175 32.7375 251.03438 32.9875Q249.89375 33.2375 249.55 33.471874Q249.00313 33.846874 249.00313 34.440624Q249.00313 35.003124 249.425 35.425Q249.8625 35.846874 250.53438 35.846874Q251.26875 35.846874 251.94063 35.3625Q252.44063 34.9875 252.59688 34.45625Q252.70625 34.096874 252.70625 33.1125L252.70625 32.565624ZM257.78436 27.175L260.3156 27.175L260.3156 28.596874Q261.675 26.940624 263.55 26.940624Q264.53436 26.940624 265.26874 27.3625Q266.0031 27.76875 266.47186 28.596874Q267.15936 27.76875 267.9406 27.3625Q268.7375 26.940624 269.64374 26.940624Q270.78436 26.940624 271.5656 27.409374Q272.3625 27.878124 272.7531 28.76875Q273.03436 29.440624 273.03436 30.925L273.03436 37.55L270.28436 37.55L270.28436 31.628124Q270.28436 30.08125 270.0031 29.628124Q269.6281 29.05 268.83124 29.05Q268.2531 29.05 267.7375 29.409374Q267.2375 29.753124 267.01874 30.425Q266.8 31.096874 266.8 32.565624L266.8 37.55L264.05 37.55L264.05 31.8625Q264.05 30.346874 263.89374 29.909374Q263.7531 29.471874 263.4406 29.26875Q263.14374 29.05 262.6125 29.05Q261.9875 29.05 261.47186 29.39375Q260.97186 29.721874 260.7375 30.378124Q260.51874 31.01875 260.51874 32.503124L260.51874 37.55L257.78436 37.55L257.78436 27.175ZM280.9875 34.253124L283.72186 34.70625Q283.20624 36.20625 282.0656 37.003124Q280.925 37.784374 279.22186 37.784374Q276.5031 37.784374 275.20624 36.01875Q274.1906 34.596874 274.1906 32.440624Q274.1906 29.8625 275.53436 28.409374Q276.8781 26.940624 278.9406 26.940624Q281.2531 26.940624 282.58124 28.471874Q283.925 30.003124 283.8781 33.159374L277.0031 33.159374Q277.03436 34.378124 277.65936 35.065624Q278.3 35.7375 279.2375 35.7375Q279.89374 35.7375 280.33124 35.39375Q280.76874 35.034374 280.9875 34.253124ZM281.14374 31.471874Q281.1125 30.284374 280.51874 29.675Q279.9406 29.05 279.1125 29.05Q278.20624 29.05 277.6281 29.690624Q277.03436 30.346874 277.05 31.471874L281.14374 31.471874ZM285.34686 32.221874Q285.34686 30.846874 286.01874 29.565624Q286.70624 28.284374 287.9406 27.6125Q289.175 26.940624 290.6906 26.940624Q293.05 26.940624 294.55 28.471874Q296.05 30.003124 296.05 32.33125Q296.05 34.690624 294.53436 36.2375Q293.01874 37.784374 290.70624 37.784374Q289.28436 37.784374 287.9875 37.14375Q286.70624 36.4875 286.01874 35.253124Q285.34686 34.003124 285.34686 32.221874ZM288.15936 32.3625Q288.15936 33.909374 288.89374 34.7375Q289.6281 35.55 290.70624 35.55Q291.78436 35.55 292.5031 34.7375Q293.2375 33.909374 293.2375 32.346874Q293.2375 30.815624 292.5031 30.003124Q291.78436 29.175 290.70624 29.175Q289.6281 29.175 288.89374 30.003124Q288.15936 30.815624 288.15936 32.3625ZM306.83124 37.55L302.65936 27.175L305.53436 27.175L307.4875 32.471874L308.0656 34.2375Q308.28436 33.565624 308.34686 33.346874Q308.47186 32.909374 308.6281 32.471874L310.6125 27.175L313.425 27.175L309.3156 37.55L306.83124 37.55ZM314.01874 34.596874L316.76874 34.175Q316.95624 34.971874 317.4875 35.39375Q318.01874 35.8 318.9875 35.8Q320.05 35.8 320.59686 35.409374Q320.95624 35.14375 320.95624 34.675Q320.95624 34.3625 320.7531 34.159374Q320.55 33.971874 319.84686 33.8Q316.51874 33.065624 315.6281 32.45625Q314.39374 31.628124 314.39374 30.128124Q314.39374 28.784374 315.45624 27.8625Q316.53436 26.940624 318.76874 26.940624Q320.89374 26.940624 321.925 27.64375Q322.97186 28.33125 323.3625 29.690624L320.76874 30.159374Q320.59686 29.565624 320.1281 29.2375Q319.675 28.909374 318.8156 28.909374Q317.7375 28.909374 317.26874 29.221874Q316.95624 29.440624 316.95624 29.76875Q316.95624 30.065624 317.22186 30.26875Q317.59686 30.55 319.78436 31.05Q321.97186 31.55 322.84686 32.26875Q323.70624 33.003124 323.70624 34.3Q323.70624 35.7375 322.51874 36.76875Q321.33124 37.784374 318.9875 37.784374Q316.8781 37.784374 315.6281 36.925Q314.39374 36.065624 314.01874 34.596874ZM344.90936 37.55L341.76874 37.55L340.51874 34.3L334.8 34.3L333.6125 37.55L330.55 37.55L336.1281 23.2375L339.1906 23.2375L344.90936 37.55ZM339.59686 31.878124L337.6281 26.565624L335.6906 31.878124L339.59686 31.878124ZM354.03436 30.2375L351.33124 30.7375Q351.1906 29.925 350.70624 29.51875Q350.22186 29.096874 349.45624 29.096874Q348.425 29.096874 347.8156 29.815624Q347.20624 30.51875 347.20624 32.175Q347.20624 34.01875 347.8156 34.784374Q348.4406 35.55 349.4875 35.55Q350.26874 35.55 350.76874 35.1125Q351.26874 34.659374 351.47186 33.58125L354.15936 34.034374Q353.7531 35.89375 352.55 36.846874Q351.3625 37.784374 349.3625 37.784374Q347.08124 37.784374 345.72186 36.346874Q344.3781 34.909374 344.3781 32.378124Q344.3781 29.8 345.7375 28.378124Q347.09686 26.940624 349.40936 26.940624Q351.3 26.940624 352.40936 27.76875Q353.53436 28.58125 354.03436 30.2375ZM360.7375 27.175L360.7375 29.3625L358.8625 29.3625L358.8625 33.55Q358.8625 34.815624 358.90936 35.034374Q358.97186 35.2375 359.15936 35.378124Q359.3625 35.503124 359.6281 35.503124Q360.0031 35.503124 360.7375 35.2375L360.97186 37.378124Q360.0031 37.784374 358.8 37.784374Q358.05 37.784374 357.45624 37.534374Q356.8625 37.284374 356.58124 36.89375Q356.3156 36.4875 356.20624 35.815624Q356.1125 35.346874 356.1125 33.89375L356.1125 29.3625L354.84686 29.3625L354.84686 27.175L356.1125 27.175L356.1125 25.1125L358.8625 23.51875L358.8625 27.175L360.7375 27.175ZM362.9875 25.76875L362.9875 23.2375L365.7375 23.2375L365.7375 25.76875L362.9875 25.76875ZM362.9875 37.55L362.9875 27.175L365.7375 27.175L365.7375 37.55L362.9875 37.55ZM366.675 37.55L370.40936 32.20625L366.83124 27.175L370.175 27.175L372.0031 30.034374L373.9406 27.175L377.15936 27.175L373.64374 32.096874L377.4875 37.55L374.1125 37.55L372.0031 34.33125L369.8781 37.55L366.675 37.55Z" fill-rule="nonzero"/></svg>